<svg width="1408" height="768" viewBox="0 0 1408 768" fill="none" xmlns="http://www.w3.org/2000/svg">
<path d="M503.305 61.6121C504.94 61.605 506.575 61.598 508.26 61.5907C510.939 61.5911 510.939 61.5911 513.673 61.5916C515.579 61.5858 517.484 61.5799 519.448 61.5739C524.733 61.5595 530.017 61.5522 535.302 61.548C541.004 61.5418 546.706 61.5267 552.408 61.5129C566.175 61.4816 579.942 61.4657 593.71 61.4516C600.197 61.4446 606.684 61.4361 613.172 61.4278C634.744 61.4009 656.316 61.378 677.889 61.3665C683.484 61.3635 689.079 61.3605 694.675 61.3574C696.761 61.3562 696.761 61.3562 698.889 61.3551C721.412 61.3419 743.935 61.3018 766.458 61.2504C789.594 61.1981 812.731 61.1696 835.868 61.1645C848.853 61.1611 861.839 61.1473 874.824 61.1068C885.883 61.0724 896.943 61.0598 908.002 61.0751C913.641 61.0823 919.279 61.0794 924.917 61.0486C931.042 61.0154 937.166 61.0318 943.291 61.0526C945.939 61.0266 945.939 61.0266 948.64 61C965.237 61.1358 980.346 65.5596 992.726 77.0317C1006.58 91.3987 1010.14 107.864 1009.94 127.277C1009.96 129.322 1009.97 131.367 1009.98 133.473C1010.01 139.096 1009.99 144.717 1009.96 150.34C1009.94 156.424 1009.97 162.509 1009.98 168.593C1010.01 180.491 1010 192.389 1009.97 204.287C1009.95 213.961 1009.94 223.635 1009.95 233.31C1009.95 234.69 1009.95 236.07 1009.95 237.491C1009.95 240.295 1009.95 243.099 1009.96 245.902C1009.97 270.663 1009.94 295.423 1009.9 320.184C1009.85 344.18 1009.84 368.175 1009.86 392.171C1009.89 418.336 1009.9 444.501 1009.87 470.666C1009.87 473.459 1009.86 476.252 1009.86 479.045C1009.86 480.419 1009.86 481.793 1009.86 483.209C1009.85 492.865 1009.85 502.522 1009.86 512.178C1009.87 523.956 1009.86 535.733 1009.82 547.51C1009.8 553.512 1009.79 559.514 1009.81 565.517C1009.83 572.038 1009.8 578.557 1009.77 585.078C1009.78 586.956 1009.79 588.833 1009.8 590.768C1009.64 607.734 1005.96 623.153 994.808 636.325C986.18 644.631 976.708 650.007 964.679 650.53C963.825 644.006 963.442 638.029 964.679 631.54C967.959 628.092 971.158 626.23 975.333 623.98C981.298 620.752 984.188 616.432 986.943 610.374C989.097 601.873 988.842 593.583 988.819 584.846C988.826 582.832 988.834 580.817 988.841 578.742C988.86 573.161 988.86 567.581 988.856 562C988.856 555.977 988.873 549.954 988.888 543.931C988.914 532.135 988.923 520.339 988.925 508.543C988.926 498.954 988.933 489.364 988.943 479.775C988.971 452.58 988.985 425.385 988.983 398.19C988.983 396.724 988.983 395.259 988.982 393.749C988.982 391.547 988.982 391.547 988.982 389.301C988.981 365.519 989.011 341.736 989.056 317.953C989.101 293.526 989.123 269.1 989.12 244.673C989.119 230.962 989.128 217.251 989.162 203.54C989.191 191.866 989.197 180.193 989.176 168.519C989.166 162.565 989.165 156.611 989.193 150.658C989.222 144.197 989.203 137.738 989.178 131.277C989.203 128.467 989.203 128.467 989.228 125.601C989.122 112.979 987.189 102.85 979.021 92.9375C978.006 92.1032 976.99 91.2688 975.945 90.4092C974.938 89.5462 973.931 88.6833 972.894 87.7943C962.94 81.3953 952.708 81.9426 941.292 81.9743C938.455 81.9636 938.455 81.9636 935.561 81.9526C930.325 81.936 925.089 81.9337 919.852 81.9374C914.2 81.938 908.548 81.9206 902.896 81.9056C891.827 81.8793 880.758 81.8706 869.689 81.8688C860.692 81.8673 851.694 81.8608 842.696 81.8508C817.179 81.8229 791.663 81.8083 766.146 81.8107C764.771 81.8108 763.395 81.8109 761.979 81.811C760.602 81.8112 759.225 81.8113 757.806 81.8114C735.49 81.8127 713.174 81.7824 690.857 81.7378C667.936 81.6923 645.016 81.6705 622.095 81.6732C609.229 81.6743 596.364 81.6656 583.498 81.6315C572.545 81.6027 561.592 81.5958 550.638 81.6173C545.052 81.6276 539.466 81.6278 533.879 81.6004C527.818 81.5709 521.758 81.5906 515.698 81.615C513.938 81.5987 512.179 81.5825 510.366 81.5657C497.636 81.6791 489.384 84.299 479.556 92.3873C475.591 97.2628 473.553 101.847 471.354 107.718C470.304 110.358 469.251 112.996 468.191 115.631C469.121 115.629 470.052 115.626 471.01 115.624C526.175 115.482 581.34 115.373 636.506 115.308C643.134 115.3 649.762 115.292 656.39 115.283C657.709 115.282 659.028 115.28 660.388 115.278C681.736 115.251 703.083 115.201 724.431 115.143C746.345 115.083 768.26 115.048 790.174 115.035C803.69 115.027 817.206 114.999 830.721 114.948C839.997 114.914 849.273 114.904 858.549 114.912C863.896 114.916 869.242 114.907 874.589 114.876C880.4 114.845 886.209 114.852 892.02 114.87C893.692 114.851 895.364 114.833 897.086 114.814C914.106 114.95 929.457 120.406 942.542 131.456C956.192 145.606 959.3 161.628 959.157 180.703C959.172 183.766 959.172 183.766 959.187 186.891C959.213 192.521 959.201 198.15 959.181 203.779C959.167 209.866 959.189 215.952 959.206 222.039C959.234 233.948 959.228 245.856 959.21 257.765C959.196 267.449 959.194 277.133 959.2 286.816C959.201 288.196 959.202 289.577 959.203 290.999C959.205 293.803 959.208 296.608 959.21 299.412C959.228 325.689 959.207 351.965 959.173 378.241C959.145 400.762 959.15 423.283 959.179 445.804C959.213 471.984 959.226 498.164 959.206 524.344C959.204 527.138 959.202 529.933 959.2 532.728C959.199 534.79 959.199 534.79 959.198 536.895C959.192 546.559 959.201 556.224 959.216 565.888C959.234 577.677 959.229 589.466 959.195 601.254C959.179 607.263 959.172 613.272 959.193 619.281C959.216 625.809 959.189 632.335 959.157 638.863C959.178 641.683 959.178 641.683 959.2 644.559C959.024 663.44 954.62 677.986 941.344 691.578C931.291 700.833 922.108 704.829 908.358 704.728C906.557 704.734 906.557 704.734 904.719 704.74C900.702 704.749 896.685 704.735 892.667 704.721C889.784 704.723 886.9 704.726 884.017 704.73C876.186 704.738 868.354 704.726 860.523 704.71C852.317 704.696 844.11 704.699 835.904 704.699C822.111 704.698 808.318 704.684 794.524 704.663C778.61 704.638 762.696 704.629 746.781 704.63C729.811 704.632 712.84 704.621 695.87 704.606C690.996 704.603 686.123 704.602 681.25 704.601C673.563 704.599 665.876 704.59 658.189 704.574C655.38 704.569 652.57 704.567 649.761 704.568C636.292 704.571 623.12 705.696 609.706 704.304C603.381 704.304 597.847 704.304 591.522 704.304C495.664 705.952 498.233 704.304 477.678 699.589C477.678 698.022 477.678 696.456 477.678 694.842C474.547 694.319 471.417 693.797 468.191 693.259C468.191 692.215 468.191 691.17 468.191 690.094C466.724 689.555 466.724 689.555 465.226 689.006C460.896 686.329 460.206 683.776 458.704 679.016C457.661 679.016 456.617 679.016 455.542 679.016C454.473 676.021 453.422 673.02 452.379 670.015C451.792 668.345 451.205 666.674 450.601 664.953C449.313 660.368 448.937 656.834 449.217 652.113C447.521 652.048 445.826 651.982 444.078 651.915C430.24 650.119 417.347 642.816 408.737 631.886C402.394 621.814 398.429 610.481 398.412 598.564C398.406 597.018 398.4 595.471 398.393 593.878C398.395 592.183 398.396 590.488 398.398 588.742C398.393 586.938 398.388 585.135 398.383 583.276C398.37 577.209 398.367 571.142 398.365 565.075C398.358 560.735 398.35 556.394 398.341 552.053C398.32 540.242 398.31 528.432 398.303 516.621C398.299 509.244 398.292 501.867 398.285 494.49C398.266 474.058 398.249 453.627 398.244 433.195C398.244 431.888 398.243 430.58 398.243 429.233C398.243 427.922 398.242 426.611 398.242 425.261C398.241 422.605 398.241 419.949 398.24 417.293C398.239 415.976 398.239 414.658 398.239 413.301C398.233 391.965 398.205 370.629 398.168 349.293C398.131 327.378 398.111 305.465 398.109 283.55C398.108 271.25 398.099 258.95 398.07 246.649C398.045 236.173 398.037 225.696 398.05 215.219C398.057 209.878 398.053 204.536 398.033 199.194C398.013 193.393 398.022 187.592 398.039 181.79C398.019 179.279 398.019 179.279 398 176.718C398.123 158.142 402.858 144.939 415.778 131.599C424.333 123.565 433.463 117.654 445.363 116.818C446.845 116.714 447.907 116.254 449.217 116.389C449.087 114.594 448.956 113.623 448.822 111.773C448.822 99.2539 456.037 86.7539 464.634 77.9961C476.191 67.332 487.431 61.644 503.305 61.6121ZM468.191 136.204C468.191 298.098 468.191 459.992 468.191 626.792C461.93 626.792 455.668 626.792 449.217 626.792C449.217 465.42 449.217 304.048 449.217 137.787C438.135 137.787 434.712 139.833 427.081 147.282C420.497 155.754 417.405 163.067 417.381 173.828C417.374 175.353 417.367 176.877 417.36 178.448C417.36 180.118 417.361 181.788 417.361 183.509C417.355 185.287 417.349 187.065 417.343 188.896C417.326 194.876 417.32 200.855 417.314 206.835C417.305 211.113 417.293 215.392 417.282 219.67C417.251 232.525 417.235 245.381 417.221 258.236C417.214 264.292 417.206 270.349 417.197 276.405C417.171 296.543 417.148 316.682 417.136 336.82C417.133 342.045 417.13 347.269 417.127 352.494C417.126 353.792 417.125 355.091 417.125 356.429C417.112 377.458 417.072 398.487 417.02 419.516C416.968 441.115 416.939 462.715 416.934 484.314C416.931 496.437 416.917 508.561 416.877 520.684C416.842 531.01 416.83 541.336 416.845 551.662C416.852 556.928 416.846 562.192 416.819 567.457C416.791 573.175 416.802 578.893 416.823 584.612C416.805 586.261 416.788 587.91 416.77 589.609C416.877 601.877 419.219 612.939 426.97 622.737C428.492 623.961 428.492 623.961 430.045 625.21C431.052 626.058 432.059 626.907 433.097 627.781C443.204 634.118 453.427 633.551 464.954 633.476C466.85 633.477 468.746 633.478 470.7 633.478C475.881 633.479 481.062 633.466 486.243 633.45C491.679 633.44 497.114 633.454 502.549 633.468C521.045 633.513 539.542 633.533 558.038 633.486C568.264 633.461 578.49 633.469 588.716 633.515C594.121 633.537 599.525 633.542 604.929 633.505C610.959 633.471 616.986 633.495 623.016 633.532C624.795 633.508 626.573 633.483 628.406 633.458C636.715 633.568 642.171 633.851 648.617 639.403C650.145 640.998 651.669 642.597 653.188 644.2C662.361 649.082 671.448 649.434 681.649 648.948C681.649 649.992 681.649 651.037 681.649 652.113C611.208 652.113 540.767 652.113 468.191 652.113C468.191 656.291 468.191 660.469 468.191 664.773C469.235 664.773 467.116 669.488 468.191 669.488C468.582 670.336 469.369 672.57 469.772 673.444C472.233 678.124 476.151 678.662 479.259 682.939C480.303 682.939 481.346 682.939 482.422 682.939C482.943 683.984 485.046 682.688 485.584 683.764C497.482 689.946 509.849 689.16 522.912 689.075C525.42 689.077 527.927 689.08 530.434 689.085C537.261 689.093 544.086 689.072 550.913 689.045C558.208 689.021 565.502 689.023 572.797 689.022C585.178 689.016 597.558 688.992 609.939 688.956C622.344 688.921 634.749 688.898 647.154 688.892C649.396 688.89 649.396 688.89 651.683 688.889C654.697 688.888 657.711 688.886 660.724 688.885C689.539 688.869 718.354 688.786 747.169 688.642C750.225 688.627 753.281 688.612 756.337 688.597C757.856 688.589 759.375 688.582 760.939 688.574C772.084 688.52 783.228 688.488 794.373 688.463C808.723 688.431 823.072 688.368 837.421 688.272C844.938 688.222 852.455 688.184 859.972 688.18C866.944 688.175 873.916 688.133 880.888 688.063C883.428 688.044 885.968 688.038 888.509 688.046C902.496 688.085 915.135 687.796 926.731 679.016C935.103 669.869 937.799 664.873 937.799 652.113C889.273 652.113 840.747 652.113 790.75 652.113C790.228 647.413 789.706 642.713 789.169 637.87C788.647 636.826 788.125 635.781 787.588 634.705C862.725 633.922 862.725 633.922 939.38 633.122C939.52 573.689 939.636 514.256 939.703 454.823C939.711 447.805 939.719 440.787 939.728 433.769C939.729 432.372 939.731 430.974 939.733 429.535C939.76 406.918 939.81 384.301 939.868 361.685C939.927 338.474 939.962 315.264 939.975 292.054C939.984 277.734 940.011 263.414 940.063 249.095C940.096 239.272 940.106 229.45 940.098 219.628C940.094 213.963 940.1 208.298 940.134 202.633C940.171 196.484 940.158 190.335 940.141 184.186C940.159 182.405 940.178 180.624 940.197 178.789C940.103 166.44 938.068 156.316 929.893 146.744C928.85 145.91 927.806 145.075 926.731 144.216C925.687 143.353 924.644 142.49 923.568 141.601C917.729 137.48 913.536 135.808 906.34 135.815C903.99 135.805 903.99 135.805 901.593 135.795C899.877 135.805 898.161 135.814 896.393 135.823C894.571 135.821 892.749 135.818 890.872 135.815C885.805 135.811 880.738 135.821 875.67 135.837C870.126 135.85 864.581 135.846 859.037 135.844C848.27 135.842 837.504 135.856 826.737 135.877C814.286 135.9 801.834 135.902 789.383 135.905C756.502 135.921 723.622 135.965 690.741 136.006C617.3 136.071 543.858 136.137 468.191 136.204Z" fill="#35112C"/>
<path d="M503.108 61.6115C504.744 61.6045 506.38 61.5974 508.066 61.5902C510.746 61.5906 510.746 61.5906 513.481 61.591C515.387 61.5852 517.294 61.5794 519.258 61.5734C524.545 61.559 529.831 61.5517 535.118 61.5475C540.822 61.5413 546.527 61.5262 552.231 61.5124C566.003 61.4812 579.776 61.4652 593.548 61.4512C600.038 61.4442 606.528 61.4357 613.018 61.4275C634.599 61.4006 656.179 61.3777 677.76 61.3662C683.357 61.3632 688.955 61.3601 694.553 61.3571C696.639 61.3559 696.639 61.3559 698.768 61.3547C721.3 61.3416 743.832 61.3016 766.363 61.2502C789.509 61.1979 812.655 61.1694 835.801 61.1644C848.791 61.161 861.781 61.1472 874.771 61.1067C885.835 61.0724 896.899 61.0597 907.963 61.0751C913.603 61.0822 919.244 61.0793 924.884 61.0486C931.011 61.0154 937.138 61.0318 943.265 61.0526C945.914 61.0265 945.914 61.0265 948.616 61C965.22 61.1356 980.334 65.5555 992.719 77.0173C1006.58 91.3714 1010.14 107.821 1009.94 127.217C1009.96 129.26 1009.97 131.303 1009.98 133.408C1010.01 139.026 1009.99 144.642 1009.96 150.26C1009.94 156.338 1009.97 162.417 1009.98 168.496C1010.01 180.383 1010 192.27 1009.97 204.158C1009.95 213.823 1009.94 223.489 1009.95 233.155C1009.95 234.534 1009.95 235.912 1009.95 237.333C1009.95 240.134 1009.95 242.935 1009.96 245.736C1009.97 270.474 1009.94 295.212 1009.9 319.951C1009.85 343.925 1009.84 367.899 1009.86 391.873C1009.89 418.014 1009.9 444.156 1009.87 470.297C1009.87 473.088 1009.86 475.878 1009.86 478.669C1009.86 480.041 1009.86 481.414 1009.86 482.829C1009.85 492.477 1009.85 502.124 1009.86 511.772C1009.87 523.539 1009.86 535.305 1009.82 547.072C1009.8 553.069 1009.79 559.066 1009.81 565.063C1009.83 571.578 1009.8 578.092 1009.77 584.607C1009.78 586.483 1009.79 588.358 1009.8 590.291C1009.64 607.242 1005.96 622.648 994.802 635.807C986.171 644.106 976.695 649.477 964.661 650C963.807 643.482 963.424 637.51 964.661 631.027C967.943 627.582 971.143 625.721 975.32 623.473C981.287 620.249 984.178 615.932 986.934 609.88C989.088 601.386 988.834 593.104 988.811 584.375C988.818 582.362 988.825 580.35 988.833 578.276C988.852 572.7 988.852 567.125 988.848 561.549C988.847 555.532 988.865 549.514 988.88 543.497C988.906 531.711 988.915 519.926 988.917 508.141C988.918 498.56 988.925 488.979 988.935 479.398C988.962 452.228 988.977 425.057 988.975 397.887C988.975 396.422 988.974 394.958 988.974 393.449C988.974 391.25 988.974 391.25 988.974 389.006C988.973 365.245 989.003 341.483 989.047 317.722C989.093 293.317 989.115 268.913 989.112 244.508C989.111 230.809 989.12 217.111 989.154 203.412C989.183 191.748 989.189 180.085 989.168 168.422C989.158 162.473 989.157 156.525 989.185 150.577C989.214 144.122 989.195 137.669 989.17 131.214C989.195 128.406 989.195 128.406 989.22 125.542C989.114 112.932 987.18 102.813 979.009 92.9088C977.993 92.0752 976.978 91.2416 975.932 90.3827C974.924 89.5206 973.917 88.6584 972.879 87.7702C962.922 81.3769 952.686 81.9238 941.265 81.9555C938.427 81.9447 938.427 81.9447 935.532 81.9337C930.294 81.9172 925.056 81.9148 919.817 81.9186C914.163 81.9192 908.509 81.9017 902.854 81.8867C891.781 81.8605 880.708 81.8518 869.635 81.85C860.634 81.8485 851.633 81.842 842.631 81.832C817.105 81.8042 791.578 81.7896 766.051 81.7919C764.676 81.7921 763.3 81.7922 761.883 81.7923C760.505 81.7924 759.128 81.7926 757.709 81.7927C735.384 81.794 713.059 81.7637 690.734 81.7191C667.804 81.6737 644.874 81.6519 621.945 81.6546C609.074 81.6557 596.203 81.647 583.333 81.6129C572.375 81.5842 561.418 81.5773 550.461 81.5987C544.872 81.6091 539.284 81.6093 533.695 81.5818C527.632 81.5524 521.569 81.5721 515.506 81.5965C513.746 81.5802 511.986 81.5639 510.173 81.5472C497.438 81.6605 489.183 84.2781 479.35 92.3591C475.384 97.2302 473.346 101.81 471.145 107.676C469.579 111.589 469.579 111.589 467.981 115.582C614.138 115.582 760.295 115.582 910.881 115.582C910.881 116.104 910.881 116.625 910.881 117.163C758.46 117.163 606.039 117.163 449 117.163C449 101.439 453.154 89.4457 464.422 77.9808C475.985 67.3263 487.229 61.6434 503.108 61.6115Z" fill="#35112C"/>
<path d="M443 136C451.25 136 459.5 136 468 136C468 298.03 468 460.06 468 627C461.812 627 455.625 627 449.25 627C449.25 465.493 449.25 303.985 449.25 137.584C447.187 137.061 445.125 136.539 443 136Z" fill="#35112C"/>
<path d="M866.267 497.226C879.548 496.576 888.519 496.774 899.031 505.638C905.252 513.09 908.353 519.342 907.968 529.293C905.499 545.893 898.923 560.259 888.373 573.236C887.628 574.239 886.883 575.241 886.115 576.274C871.527 594.995 847.4 604.974 824.658 609.015C788.414 613.062 753.183 604.397 721 587.488C721 586.966 721 586.443 721 585.905C722.011 585.633 723.022 585.362 724.064 585.083C728.669 583.844 733.272 582.598 737.875 581.352C739.466 580.925 741.057 580.499 742.696 580.059C745.008 579.431 745.008 579.431 747.368 578.791C748.782 578.41 750.196 578.028 751.653 577.635C755.79 576.474 755.79 576.474 759.792 574.646C763.856 573.154 766.058 573.028 770.294 573.626C771.525 573.799 772.757 573.973 774.026 574.151C779.039 575.029 783.995 576.088 788.959 577.213C817.112 583.539 844.921 584.149 871.004 570.069C883.298 561.595 891.711 551.148 896.267 536.815C897.252 530.311 897.756 524.25 896.267 517.812C893.557 513.987 893.557 513.987 889.952 511.478C884.899 511.705 884.899 511.705 880.478 513.061C880.836 512.114 881.194 511.167 881.563 510.191C881.726 509.048 881.889 507.905 882.057 506.727C879.852 504.121 879.852 504.121 877.32 501.976C877.32 500.931 877.32 499.886 877.32 498.809C873.151 499.332 868.983 499.855 864.688 500.393C865.209 499.348 865.73 498.303 866.267 497.226Z" fill="#3A5120"/>
<path d="M685 252C682.926 284.068 682.926 284.068 673.898 294.577C669.419 298.405 664.859 302.081 660.2 305.689C656.358 308.423 656.358 308.423 654.866 311.923C654.664 315.789 654.565 319.588 654.568 323.454C654.567 324.585 654.566 325.716 654.565 326.88C654.652 335.714 655.778 344.123 657.331 352.825C658.414 360.225 658.308 367.541 658.038 375C655.421 375 652.804 375 650.107 375C649.486 373.016 648.864 371.032 648.224 368.988C646.55 364.642 645.701 362.681 642.078 359.625C639.311 358.454 636.528 357.319 633.714 356.262C619.732 350.96 612.309 345.196 605.513 331.789C603.9 327.07 603.866 323.182 604.113 318.231C622.199 323.596 635.112 328.733 645.349 345.038C646.437 347.126 647.504 349.224 648.521 351.346C643.953 321.508 630.677 300.567 607.285 281.962C608.855 281.441 610.425 280.921 612.043 280.385C616.504 282.947 616.504 282.947 621.559 286.692C623.064 287.766 624.569 288.839 626.119 289.945C633.37 296.004 638.426 304.232 643.763 311.923C643.804 310.266 643.845 308.61 643.887 306.903C644.477 290.281 645.566 277.816 658.236 265.798C665.307 259.968 675.404 252 685 252Z" fill="#59802D"/>
<path d="M864.792 364C871.794 366.857 874.165 370.9 877.614 377.405C879.897 383.72 879.179 389.232 877.472 395.628C876.949 396.672 876.426 397.715 875.887 398.791C876.655 398.316 877.423 397.841 878.215 397.351C886.75 392.52 891.672 391.78 901.245 394.047C902.814 395.09 904.383 396.134 906 397.209C906 398.253 906 399.297 906 400.372C903.739 402.198 901.475 404.019 899.19 405.814C896.214 408.532 894.194 411.376 891.934 414.703C887.148 421.252 882.279 425.262 874.302 427.256C869.403 427.279 864.823 426.691 860.038 425.674C859.515 427.762 858.992 429.849 858.453 432C858.453 429.913 858.453 427.825 858.453 425.674C856.818 425.577 855.184 425.479 853.5 425.378C846.439 423.901 842.441 421.57 837.849 416.186C835.297 412.204 832.949 408.179 830.705 404.017C828.21 400.173 825.673 398.286 822 395.628C822 394.584 822 393.54 822 392.465C827.847 389.548 834.623 390.328 841.019 390.884C847.646 393.676 851.956 398.354 856.868 403.535C856.083 402.295 855.299 401.056 854.491 399.779C851.406 392.342 850.344 386.158 852.113 378.233C855.252 373.364 858.946 369.487 863.208 365.581C863.731 365.06 864.254 364.538 864.792 364Z" fill="#C5669B"/>
<path d="M744.544 419C747.619 421.806 749.581 424.298 751.723 427.929C753.638 431.876 753.638 431.876 757.132 433.286C758.116 437.353 758.116 437.353 758.706 441.222C757.358 440.946 757.358 440.946 755.983 440.664C746.162 439.562 740.188 442.206 732.546 448.266C717.888 460.349 707.53 474.457 697.338 490.429C707.204 488.857 717.07 487.286 727.235 485.667C718.605 485.549 710.542 485.452 702.059 487.254C710.379 478.12 716.672 474.311 729.006 473.762C741.27 474.045 753.244 477.377 762.388 485.939C763.25 486.897 764.112 487.855 765 488.841C750.522 498.719 738.758 504.978 720.941 503.127C716.846 502.06 712.87 500.776 708.851 499.45C703.682 497.912 699.529 497.64 694.191 498.365C690.113 500.581 690.113 500.581 687.577 502.575C683.86 505.388 679.996 507.921 676.096 510.468C674.684 511.405 673.272 512.343 671.818 513.308C667.307 515.902 662.966 517.512 658 519C658 517.429 658 515.857 658 514.238C661.951 510.736 666.405 508.165 670.883 505.409C691.082 491.703 703.858 468.896 711.5 445.984C711.876 440.389 711.764 435.938 710.418 430.508C709.926 426.937 709.926 426.937 711.697 423.96C714.647 422.175 714.647 422.175 718.778 422.571C722.515 423.762 722.515 423.762 724.088 425.349C724.152 427.994 724.155 430.641 724.088 433.286C723.082 433.548 722.076 433.81 721.04 434.079C717.084 436.412 717.084 436.412 716.614 442.611C716.255 446.945 716.221 451.144 716.221 455.508C717.815 454.044 717.815 454.044 719.441 452.55C720.845 451.267 722.249 449.984 723.695 448.663C725.082 447.392 726.47 446.121 727.899 444.812C737.337 436.46 737.337 436.46 741.397 436.46C741.332 434.463 741.267 432.466 741.2 430.409C741.021 424.888 741.304 423.903 744.544 419Z" fill="#59802D"/>
<path d="M626.063 502.429L629.227 496.891L630.018 482.652C630.651 478.855 632.919 467.885 633.973 462.875C634.606 461.609 638.984 446.525 641.093 439.142C642.359 437.243 646.367 424.638 648.213 418.573L645.049 418.573L639.511 433.604L633.973 448.635L632.391 458.128L628.436 462.083L626.063 473.159L622.107 470.785L620.525 477.114L615.778 469.203L614.987 474.741L611.823 473.95L616.57 485.025C617.202 485.025 618.415 490.299 618.943 492.936L620.525 499.265L623.689 502.429L626.063 502.429Z" fill="#59802D"/>
<path d="M679.728 174.11C678.885 184.357 676.496 193.136 669.236 200.673C661.477 207.084 653.333 209.919 643.664 212.206C649.877 212.583 653.755 212.672 659.344 209.726C666.276 206.363 671.461 207.829 678.552 210.222C682.255 212.899 683.903 216.109 686 220.142C676.116 224.822 667.23 228.359 656.208 226.492C651.406 224.309 651.406 224.309 648.368 221.73C648.368 220.682 648.368 219.634 648.368 218.555C646.816 218.031 645.263 217.507 643.664 216.968C643.147 218.015 642.629 219.063 642.096 220.142C637.508 216.296 637.508 216.296 637 212.293C638.417 199.789 642.966 189.841 652.288 181.352C661.312 174.276 668.577 173.667 679.728 174.11Z" fill="#DB7ABE"/>
<path d="M685 252C682.912 283.956 682.912 283.956 673.82 294.429C669.31 298.243 664.717 301.907 660.025 305.502C655.633 309.073 654.827 310.304 654.148 315.802C654.018 317.37 653.888 318.938 653.755 320.554C653.554 322.918 653.554 322.918 653.349 325.329C653.252 326.541 653.156 327.752 653.056 329C652.529 329 652.002 329 651.459 329C650.932 324.851 650.405 320.703 649.862 316.429C648.807 317.466 647.753 318.503 646.667 319.571C640.54 310.669 643.617 296.749 645.07 286.571C647.898 274.401 655.707 266.963 665.834 259.857C679.421 252 679.421 252 685 252Z" fill="#59802D"/>
<path d="M779.277 495C780.32 495.522 781.363 496.044 782.438 496.581C782.624 501.556 782.735 506.529 782.833 511.506C782.913 513.59 782.913 513.59 782.994 515.716C783.223 531.278 777.127 543.728 766.633 555.093C763.065 558.052 759.485 560.493 755.569 563C754.384 560.331 754.384 560.331 753.989 556.674C756.002 553.966 758.127 551.34 760.311 548.767C762.124 545.293 763.835 541.764 765.448 538.192C766.271 536.392 767.094 534.592 767.942 532.737C769.994 528.537 769.994 528.537 769.794 525.047C769.069 526.439 768.343 527.831 767.596 529.266C766.626 531.102 765.656 532.939 764.657 534.831C763.704 536.648 762.75 538.464 761.768 540.335C758.973 545.184 756.174 549.378 752.408 553.512C751.365 553.512 750.322 553.512 749.247 553.512C748.348 535.946 749.419 524.24 760.706 510.517C766.278 504.483 772.52 499.636 779.277 495Z" fill="#3A5120"/>
<path d="M760.741 394C762.295 394.527 763.849 395.054 765.451 395.597C765.451 400.338 765.451 405.08 765.451 409.965C766.811 409.175 768.171 408.385 769.572 407.57C775.039 405.099 778.399 404.748 784.29 405.176C783.659 414.163 780.696 417.954 774.87 424.334C776.619 424.729 778.367 425.124 780.169 425.531C785.86 427.527 785.86 427.527 788.117 430.919C788.408 431.907 788.7 432.895 789 433.913C781.588 440.228 777.144 442.11 767.511 441.995C765.951 441.981 764.391 441.966 762.783 441.951C760.995 441.924 760.995 441.924 759.171 441.895C758.19 438.902 758.19 438.902 757.601 435.509C758.637 434.456 759.673 433.402 760.741 432.316C759.186 432.316 757.632 432.316 756.031 432.316C756.031 431.263 756.031 430.209 756.031 429.123C754.995 429.123 753.959 429.123 752.891 429.123C752.373 425.962 751.855 422.801 751.321 419.544C750.285 419.544 749.249 419.544 748.181 419.544C747.463 410.412 748.749 405.889 754.461 398.79C757.699 395.696 757.699 395.696 760.741 394Z" fill="#D0A3D3"/>
<path d="M551.727 218C560.665 220.096 564.62 226.475 569.227 233.854C572.716 241.44 572.821 247.844 572.409 256.049C571.884 257.095 571.359 258.141 570.818 259.22C569.768 259.22 567.611 259.979 566.529 259.979C564.429 254.747 561.273 248.881 561.273 243.366C563.41 250.77 565.47 257.89 568.531 264.966C571.09 270.953 572.55 276.665 574 283C572.95 283 571.9 283 570.818 283C570.293 281.43 569.768 279.861 569.227 278.244C559.922 272.044 549.907 269.075 539 267.146C539 265.577 539 264.007 539 262.39C548.81 261.753 556.782 264.026 566.045 267.146C565.164 266.208 564.282 265.27 563.373 264.304C562.221 263.051 561.068 261.798 559.881 260.508C558.164 258.659 558.164 258.659 556.413 256.773C550.204 248.958 549.731 242.622 549.838 232.764C549.839 231.692 549.84 230.62 549.841 229.516C549.912 221.618 549.912 221.618 551.727 218Z" fill="#59802D"/>
<path d="M740.023 629.593C761.806 628.379 761.806 628.379 771.307 636.03C775.189 640.282 776 641.393 776 647.296C770.509 650.121 764.551 649.807 758.769 647.824C756.135 646.657 753.548 645.376 750.972 644.077C752.908 645.671 752.908 645.671 754.883 647.296C760.128 653.772 759.469 656.803 758.793 665C750.631 663.2 746.927 659.667 741.746 653.338C740.023 650.515 740.023 650.515 740.023 645.687C741.055 645.687 738.177 644.882 739.241 644.882C738.466 643.139 739.248 645.051 738.458 643.273C736.873 638.686 739.897 634.4 740.023 629.593Z" fill="#D0A3D3"/>
<path d="M507.075 339C519.586 342.418 530.015 348.637 537.238 359.5C539.177 364.681 540.686 369.9 542 375.269C535.033 370.117 528.105 364.942 521.363 359.5C527.679 367.148 533.487 373.267 542 378.423C542 378.943 542 379.464 542 380C532.457 379.579 525.522 378.739 518.188 372.115C511.247 362.214 506.327 351.271 507.075 339Z" fill="#D0A3D3"/>
<path d="M832.103 545.841C837.948 548.289 843.251 551.118 848 555.33C848 556.896 848 558.462 848 560.075C836.525 564.967 827.695 566.918 815.708 562.645C811.682 561.036 808.756 559.352 805.077 556.912C800.336 556.874 800.336 556.874 795.24 557.505C793.513 557.68 791.785 557.855 790.005 558.036C788.023 558.262 788.023 558.262 786 558.493C789.364 554.283 792.006 551.012 797.439 549.82C799.883 549.611 802.333 549.461 804.785 549.381C808.314 549.202 808.314 549.202 811.368 547.441C817.917 544.214 825.023 544.758 832.103 545.841Z" fill="#C5669B"/>
<path d="M518.429 251.318C520.687 251.23 522.946 251.167 525.205 251.115C526.463 251.077 527.721 251.039 529.017 251C532.571 251.318 532.571 251.318 537.286 254.575C537.804 256.187 538.323 257.8 538.857 259.461C539.894 260.536 540.931 261.61 542 262.718C540.963 262.718 539.926 262.718 538.857 262.718C538.857 263.793 538.857 264.868 538.857 265.975C533.671 264.363 528.486 262.75 523.143 261.089C523.661 262.164 524.18 263.239 524.714 264.346C523.159 264.346 521.603 264.346 520 264.346C520 265.421 520 266.496 520 267.604C526.223 268.141 532.446 268.678 538.857 269.232C535.714 275.746 535.714 275.746 532.277 277.782C518.642 281.55 509.799 275.978 498 269.232C498 268.157 498 267.082 498 265.975C500.55 264.61 503.104 263.255 505.661 261.904C507.794 260.77 507.794 260.77 509.97 259.613C513.714 257.832 513.714 257.832 516.857 257.832C517.376 255.683 517.894 253.533 518.429 251.318Z" fill="#E3C7BD"/>
<path d="M607 280C617.938 281.468 626.075 288.421 632.942 296.812C637.976 303.526 642.976 310.497 646.743 318C648.317 316.955 649.891 315.91 651.512 314.833C651.705 316.195 651.897 317.556 652.096 318.959C652.362 320.83 652.629 322.702 652.903 324.63C653.334 327.667 653.334 327.667 653.773 330.766C654.602 336.389 655.533 341.984 656.48 347.589C657.932 356.787 658.208 365.706 657.871 375C655.773 374.478 653.674 373.955 651.512 373.417C652.037 372.372 652.561 371.327 653.102 370.25C653.843 360.937 653.843 360.937 649.922 352.833C648.962 349.255 648.078 345.656 647.24 342.047C640.744 316.447 627.252 298.32 607 281.583C607 281.061 607 280.538 607 280Z" fill="#59802D"/>
<path d="M803.209 459C808.43 461.208 810.675 463.445 813.531 468.418C814.174 469.512 814.817 470.606 815.479 471.733C818.382 477.334 818.892 481.899 818.934 488.147C818.956 489.631 818.977 491.115 819 492.645C818.624 497.325 817.458 500.755 815.557 505C815.048 505 814.539 505 814.014 505C813.809 503.663 813.604 502.326 813.393 500.948C813.12 499.21 812.848 497.472 812.567 495.681C812.298 493.951 812.03 492.221 811.753 490.439C811.15 486.064 811.15 486.064 809.383 482.793C809.383 490.121 809.383 497.45 809.383 505C801.945 497.355 798.399 491.293 798 480.612C798.233 472.896 800.456 466.125 803.209 459Z" fill="#3A5120"/>
<path d="M563.222 276.599C564.799 277.66 566.376 278.721 568 279.814C566.818 280.974 565.635 282.134 564.417 283.33C560.045 287.611 560.045 287.611 557.051 292.07C551.474 298.362 546.05 300.489 537.902 300.999C533.59 301.01 529.307 300.922 525 300.71C529.122 289.635 534.728 282.609 545.399 277.704C551.283 275.841 557.146 275.559 563.222 276.599Z" fill="#59802D"/>
<path d="M621.462 192C625.931 197.318 628.547 200.773 629.346 207.769C631.948 207.249 634.55 206.728 637.231 206.192C637.296 207.884 637.361 209.575 637.428 211.317C638.229 217.541 638.229 217.541 643.341 220.779C645.781 222.145 645.781 222.145 648.269 223.538C651.226 226.101 651.226 226.101 653 228.269C653 229.31 653 230.351 653 231.423C646.242 231.975 641.847 231.761 636.147 228.171C631.464 224.842 631.464 224.842 627.671 225.115C623.247 227.398 619.219 230.136 615.154 233C614.113 231.439 613.072 229.878 612 228.269C615.643 225.147 619.285 222.025 623.038 218.808C622.518 216.726 621.998 214.645 621.462 212.5C621.354 208.953 621.328 205.404 621.363 201.856C621.377 200.01 621.391 198.164 621.406 196.263C621.424 194.856 621.443 193.449 621.462 192Z" fill="#59802D"/>
<path d="M593.242 193C600.869 200.228 604.601 207.019 605 217.487C604.73 224.949 602.875 230.695 599.619 237.414C598.041 237.937 596.462 238.461 594.836 239C589.242 228.05 584.762 217.948 588.203 205.671C589.755 201.38 591.412 197.181 593.242 193Z" fill="#3A5120"/>
<path d="M632.658 163C639.34 165.956 642.013 169.192 645.474 175.667C647.015 183.743 645.098 187.947 640.668 194.568C639.09 196.73 637.496 198.88 635.862 201C632.672 196.271 631.15 192.138 629.454 186.75C628.396 188.84 627.339 190.93 626.25 193.083C625.446 181.085 626.33 173.358 632.658 163Z" fill="#DB7ABE"/>
<path d="M548.345 331C554.779 337.015 556.847 339.854 557 348.519C556.95 357.658 554.865 365.458 551.642 374C550.01 372.949 548.378 371.898 546.696 370.815C545.608 371.34 544.52 371.866 543.399 372.407C539.33 359.212 540.398 345.559 546.902 333.408C547.378 332.613 547.854 331.819 548.345 331Z" fill="#D0A3D3"/>
<path d="M558.091 234C560.504 237.995 561.324 240.763 561.869 245.46C562.726 250.565 563.457 252.89 565.847 257.216C570.256 265.321 572.02 274.059 574 283C572.95 283 571.9 283 570.818 283C570.293 281.435 569.768 279.87 569.227 278.258C559.922 272.077 549.907 269.116 539 267.194C539 265.629 539 264.064 539 262.452C548.81 261.816 556.782 264.083 566.045 267.194C564.723 265.846 564.723 265.846 563.373 264.471C556.478 257.169 551.843 251.864 550.136 241.903C551.711 242.425 553.286 242.946 554.909 243.484C555.959 240.354 557.009 237.225 558.091 234Z" fill="#3A5120"/>
<path d="M537.35 394.376C540.353 398.299 540.353 398.299 542 402.223C533.077 411.494 533.077 411.494 527.62 411.902C526.259 411.912 524.899 411.922 523.497 411.933C522.14 411.955 520.784 411.977 519.386 412C515.65 411.638 515.65 411.638 511 408.5C512.407 406.723 513.832 404.96 515.262 403.203C516.054 402.22 516.845 401.237 517.66 400.224C523.489 394.241 529.181 393.323 537.35 394.376Z" fill="#D0A3D3"/>
<path d="M800.373 243.389C803.51 246.56 803.51 246.56 804 252.01C803.51 257.658 803.51 257.658 801.647 260.631C798.141 262.83 795.025 263.445 790.961 264C784.886 257.284 784.886 257.284 784 251.911C784.686 248.145 784.686 248.145 786.353 245.271C791.048 242.363 795.005 242.895 800.373 243.389Z" fill="#DBB7A9"/>
<path d="M771.449 281.385C772.418 285.824 772.418 285.824 773 290.855C771.464 293.199 771.464 293.199 769.898 295.59C769.186 300.275 769.186 300.275 768.928 305.356C768.812 307.071 768.696 308.786 768.577 310.553C768.501 311.866 768.425 313.178 768.347 314.53C769.37 315.051 770.394 315.572 771.449 316.108C773 318 767.5 328.5 765 324C765 318.791 765.245 313.583 765.245 308.217C764.733 308.217 765.772 307.427 765.244 307.427C765.244 303.261 763.693 299.883 763.693 295.59C762.702 295.232 761.71 294.874 760.688 294.505C757.489 292.433 757.489 292.433 756.035 288.586C755.938 284.541 755.938 284.541 757.489 281.582C762.301 278.827 766.218 280.28 771.449 281.385Z" fill="#D0A3D3"/>
<path d="M775 617.166C774.698 620.139 774.698 620.139 773.389 623.727C767.212 628.466 762.806 629.212 755.163 628.956C752.581 628.889 752.581 628.889 749.946 628.821C747.993 628.736 747.993 628.736 746 628.648C747.309 620.818 747.309 620.818 750.028 617.473C757.891 613.671 766.79 614.81 775 617.166Z" fill="#D0A3D3"/>
<path d="M570.813 359C575.565 364.408 577.207 369.722 579.103 376.599C579.653 378.554 580.204 380.508 580.77 382.522C582 387.636 582 387.636 582 392.409C579.891 392.934 577.781 393.459 575.608 394C568.633 385.345 566.758 378.677 567.024 367.619C567.617 363.773 567.617 363.773 570.813 359Z" fill="#59802D"/>
<path d="M666 274C666 279.359 664.743 281.429 662.108 286.08C654.618 300.181 653.76 313.355 652.889 329C652.349 329 651.808 329 651.251 329C650.71 324.851 650.169 320.703 649.612 316.429C648.53 317.466 647.449 318.503 646.334 319.571C641.712 313.279 643.042 306.806 643.671 299.536C643.811 297.667 643.811 297.667 643.953 295.761C644.184 292.696 644.437 289.634 644.695 286.571C645.236 286.571 645.777 286.571 646.334 286.571C646.875 292.276 647.416 297.98 647.973 303.857C648.725 302.36 649.477 300.863 650.252 299.321C651.267 297.33 652.283 295.339 653.299 293.348C653.791 292.365 654.284 291.381 654.791 290.368C657.912 284.286 661.343 279.167 666 274Z" fill="#B0CF88"/>
<path d="M621 336C628.62 338.102 633.172 342.64 638.712 347.913C639.692 348.615 640.672 349.317 641.682 350.04C643.257 349.525 644.832 349.01 646.455 348.48C654.08 354.087 654.08 354.087 654.994 360.162C655.025 370.674 655.025 370.674 652.819 375C651.769 375 650.719 375 649.637 375C648.915 373.069 648.193 371.139 647.449 369.15C642.353 355.987 634.383 348.897 623.504 339.827C622.678 339.079 621.852 338.331 621 337.56C621 337.045 621 336.53 621 336Z" fill="#B0CF88"/>
<path d="M624.141 179C624.68 179 625.219 179 625.774 179C626.313 181.645 626.852 184.29 627.407 187.015C628.485 185.957 629.562 184.899 630.672 183.809C632.289 189.099 633.905 194.388 635.571 199.839C638.265 195.607 640.959 191.375 643.734 187.015C644.812 187.544 645.89 188.073 647 188.618C644.678 194.742 642.27 200.641 638.836 206.25C633.428 208.154 633.428 208.154 629.04 207.853C623.318 197.655 621.606 190.444 624.141 179Z" fill="#D0A3D3"/>
<path d="M551.753 283.137C557.036 278.991 562.277 277.4 569.1 276.437C569.991 276.295 570.883 276.154 571.802 276.008C574.378 276.171 574.378 276.171 576.625 277.843C578.513 279.872 580.402 281.901 582.291 283.93C581.669 284.346 581.047 284.762 580.405 285.191C579.348 284.283 572.891 281.983 571.802 281.047C563.34 280.324 561.393 283.571 554.013 286.519C553.267 285.403 552.521 284.287 551.753 283.137Z" fill="#3A5120"/>
<path d="M518.562 251.319C520.808 251.23 523.054 251.167 525.301 251.115C526.552 251.077 527.802 251.039 529.091 251C532.625 251.319 532.625 251.319 537.312 254.581C537.828 256.196 538.344 257.811 538.875 259.475C539.906 260.552 540.937 261.628 542 262.737C540.969 262.737 539.938 262.737 538.875 262.737C538.875 263.814 538.875 264.891 538.875 266C533.203 264.385 527.531 262.77 521.688 261.106C521.688 260.03 521.688 258.953 521.688 257.844C520.141 257.844 518.594 257.844 517 257.844C517.516 255.69 518.031 253.537 518.562 251.319Z" fill="#DDAE99"/>
<path d="M608.36 397C615.512 397.882 615.512 397.882 617.779 400.176C618.074 404.048 618.074 404.048 617.779 408.118C616.743 409.166 615.707 410.214 614.64 411.294C613.246 414.415 613.246 414.415 612.089 417.846C611.68 418.996 611.271 420.147 610.85 421.332C610.546 422.213 610.243 423.093 609.93 424C609.412 424 608.894 424 608.36 424C608.218 422.48 608.218 422.48 608.072 420.929C607.941 419.617 607.809 418.304 607.674 416.952C607.546 415.644 607.419 414.336 607.287 412.988C607.121 409.727 607.121 409.727 605.221 408.118C604.926 404.246 604.926 404.246 605.221 400.176C606.257 399.128 607.293 398.08 608.36 397Z" fill="#D0A3D3"/>
<path d="M722.157 424.249C723.709 425.824 723.709 425.824 724 429.664C723.709 433.7 723.709 433.7 720.606 436.85C718.558 436.85 716.509 436.85 714.399 436.85C713.887 437.889 713.375 438.929 712.847 440C710.124 435.771 709.734 433.826 710.132 428.679C710.516 427.217 710.9 425.756 711.296 424.249C715.46 422.136 717.74 423.099 722.157 424.249Z" fill="#D0A3D3"/>
<path d="M540.257 347C540.772 347 541.286 347 541.816 347C542.422 351.614 543.003 356.229 543.569 360.848C543.744 362.158 543.918 363.467 544.098 364.817C544.249 366.078 544.4 367.339 544.555 368.638C544.775 370.378 544.775 370.378 545 372.154C544.932 375.286 544.932 375.286 541.816 380C533.499 373.824 526.246 367.902 520 359.571C520.514 358.534 521.028 357.497 521.558 356.429C523.896 358.589 523.896 358.589 526.233 361.143C526.233 362.18 528.57 362.431 528.57 363.5C529.438 363.889 527.969 365.064 528.863 365.464C533.089 367.768 536.574 370.618 540.257 373.714C539.229 370.084 538.201 366.454 537.141 362.714C538.169 362.714 539.198 362.714 540.257 362.714C540.257 357.529 540.257 352.343 540.257 347Z" fill="#BB7ABF"/>
<path d="M745 620C743.58 627.8 743.58 627.8 741.754 629.6C741.118 632.019 740.553 634.456 740.029 636.9C739.742 638.222 739.456 639.544 739.16 640.906C738.945 641.927 738.729 642.948 738.507 644C733.53 640.167 732.129 638.233 731 632C732.014 626.4 732.014 626.4 736.681 622.5C741.754 620 741.754 620 745 620Z" fill="#59802D"/>
<path d="M564 440.225C578.89 438.527 592.496 446.741 604.885 454.271C605.583 454.909 606.281 455.548 607 456.206C607 457.788 607 459.37 607 461C605.497 460.151 603.994 459.303 602.446 458.428C589.944 451.485 577.825 445.75 564 441.823C564 441.296 564 440.769 564 440.225Z" fill="#EAF1DF"/>
<path d="M653.183 343C654.233 343 655.284 343 656.366 343C657.767 353.739 658.139 364.174 657.957 375C655.857 374.472 653.756 373.944 651.591 373.4C652.117 372.344 652.642 371.288 653.183 370.2C653.924 360.789 653.924 360.789 650 352.6C651.393 347.5 651.393 347.5 653.183 343Z" fill="#B0CF88"/>
<path d="M523.176 260C525.044 260.722 526.911 261.444 528.835 262.187C534.824 264.444 540.826 266.279 547 267.954C541.6 271.299 537.956 271.338 531.713 270.639C530.186 270.481 528.659 270.323 527.085 270.16C523.176 269.545 523.176 269.545 520 267.954C521.048 265.329 522.096 262.704 523.176 260Z" fill="#DDAE99"/>
<path d="M699.266 485C701.281 485 703.295 485 705.37 485C704.363 487.539 703.356 490.078 702.318 492.694C707.606 494.979 707.606 494.979 713 497.311C713 497.819 713 498.327 713 498.85C710.489 498.891 707.977 498.921 705.466 498.946C704.067 498.964 702.669 498.982 701.228 499C697.741 498.85 697.741 498.85 696.215 497.311C695.928 492.79 695.928 492.79 696.215 488.078C697.222 487.062 698.229 486.046 699.266 485Z" fill="#B0CF88"/>
<path d="M539 395.445C542.606 395.322 546.213 395.234 549.82 395.16C551.828 395.107 553.837 395.054 555.906 395C561.235 395.445 561.235 395.445 566 400C557.614 400 549.228 400 540.588 400C540.064 398.497 539.54 396.994 539 395.445Z" fill="#59802D"/>
<path d="M863.451 397C864.568 397 865.684 397 866.835 397C866.881 399.8 866.913 402.6 866.941 405.4C866.96 406.959 866.98 408.519 867 410.125C866.855 414.052 866.339 417.259 865.143 421C863.468 420.472 861.794 419.944 860.068 419.4C859.709 411.093 860.759 404.797 863.451 397Z" fill="#D0A3D3"/>
<path d="M808.281 478C813.939 486.68 814.955 496.265 816 506.421C813.962 506.942 811.924 507.463 809.825 508C807.27 502.774 808.125 496.961 808.184 491.224C808.191 489.958 808.198 488.692 808.206 487.387C808.224 484.258 808.251 481.129 808.281 478Z" fill="#59802D"/>
<path d="M732 487.088C730.188 487.306 728.376 487.523 726.51 487.747C724.101 488.039 721.692 488.331 719.283 488.623C717.497 488.837 717.497 488.837 715.675 489.055C709.08 489.858 702.541 490.787 696 492C696.517 490.379 697.033 488.758 697.565 487.088C707.537 482.645 722.858 480.714 732 487.088Z" fill="#B0CF88"/>
<path d="M689.601 601C692.745 601.453 695.88 601.977 699 602.579C699 605.184 699 607.789 699 610.474C697.449 609.953 695.898 609.432 694.3 608.895C692.184 613.161 692.203 616.976 691.853 621.724C691.721 623.454 691.59 625.184 691.455 626.966C691.36 628.297 691.265 629.629 691.167 631C690.65 631 690.133 631 689.601 631C689.297 626.297 689.005 621.593 688.719 616.888C688.632 615.546 688.544 614.204 688.453 612.821C688.34 610.905 688.34 610.905 688.224 608.95C688.15 607.768 688.076 606.585 688 605.367C688.034 602.579 688.034 602.579 689.601 601Z" fill="#3A5120"/>
<path d="M663.875 203C664.906 203.51 665.937 204.02 667 204.545C658.463 213.592 658.463 213.592 651.326 213.999C648.217 214.01 645.108 213.92 642 213.818C645.772 209.396 649.096 208.14 654.695 206.67C659.724 205.628 659.724 205.628 663.875 203Z" fill="#D0A3D3"/>
<path d="M743.538 620.331C745.062 620.771 748.123 617.591 749.692 618.044C749.185 620.245 747.138 624.922 746.615 627.19C751.692 627.19 756.769 628.333 762 628.333C761.492 629.213 760.985 630.093 760.462 631C754.369 631 748.277 630.238 742 630.238C742.508 626.717 743.015 623.958 743.538 620.331Z" fill="#C5669B"/>
<path d="M752.545 418C752.545 421.57 752.545 425.14 752.545 428.818C753.625 428.818 754.705 428.818 755.818 428.818C755.818 429.838 755.818 430.858 755.818 431.909C758.518 431.399 761.218 430.889 764 430.364C762.38 432.659 762.38 432.659 760.727 435C752.747 432.906 750.114 429.256 746 422.636C750.705 418 750.705 418 752.545 418Z" fill="#F1E9DE"/>
<path d="M714.8 437C715.856 437 716.912 437 718 437C716.6 448.784 716.6 448.784 714.8 454C713.216 454 711.632 454 710 454C710.495 451.745 710.996 449.492 711.5 447.239C711.778 445.984 712.057 444.728 712.344 443.435C713.2 440.091 713.2 440.091 714.8 437Z" fill="#A1A695"/>
<path d="M696 619C697.98 619.519 699.96 620.037 702 620.571C702.217 622.484 702.433 624.396 702.656 626.366C703.242 631.299 703.985 636.14 705 641C700.411 637.055 699.372 633.299 697.969 627.348C697.592 625.786 697.215 624.225 696.826 622.616C696.554 621.422 696.281 620.229 696 619Z" fill="#59802D"/>
<path d="M653 198C650.641 205.078 644.959 208.112 639 212C640.191 205.12 645.309 198 653 198Z" fill="#D0A3D3"/>
<path d="M659.289 227.954C650.838 227.855 645.287 222.374 638.72 216.888C646.48 215.699 656.114 218.995 659.289 227.954Z" fill="#D0A3D3"/>
<path d="M640 578C653.779 586.939 655.358 597.235 658 611C650.013 607.621 649.162 604.206 645.625 597.356C644.565 595.347 643.506 593.337 642.414 591.267C640 585.615 640 585.615 640 578Z" fill="#59802D"/>
<path d="M539 263.147C544.25 262.951 544.25 262.951 549.889 263.147C550.916 264.181 551.942 265.215 553 266.28C551.444 267.847 551.444 267.847 548.57 268C545.38 267.949 542.19 267.898 539 267.847C539 266.296 539 264.745 539 263.147Z" fill="#3A5120"/>
<path d="M798.5 551.123C799.655 551.562 800.81 552.001 802 552.453C798.692 557.032 796.969 557.407 791.3 558.489C789.551 558.657 787.802 558.826 786 559C792.892 550.741 792.892 550.741 798.5 551.123Z" fill="#DAD0C4"/>
<path d="M767.98 518C771.301 527.188 770.117 530.598 767.381 540.422C763.188 550.083 763.188 550.083 756 553C759.14 540.65 763.053 529.451 767.98 518Z" fill="#59802D"/>
<path d="M558.785 439.327C573.039 434.785 578.05 437.108 592.566 442.678C606.667 450.647 606.667 450.647 610.241 462.875C591.958 456.368 575.503 448.703 558.785 439.327Z" fill="#59802D"/>
<path d="M843.067 455.143C838.593 458.552 837.514 456.818 834.243 452.66C831.389 446.707 831.389 446.707 831.952 437.56C836.136 442.415 839.674 448.14 843.067 455.143Z" fill="#59802D"/>
<path d="M855.114 510.799C854.054 508.025 855.116 507.855 857.77 507.124C861.286 506.94 861.286 506.94 865.916 508.991C862.76 510.016 859.255 510.566 855.114 510.799Z" fill="#59802D"/>
<path d="M868.805 526.413C872.383 524.433 872.619 525.892 873.603 529.481C873.891 534.375 873.891 534.375 871.301 541.228C869.929 536.987 869.166 532.175 868.805 526.413Z" fill="#59802D"/>
<path d="M872.325 469.513C867.235 464.278 869.398 462.751 874.496 458.234C882.029 454.05 882.029 454.05 894.232 453.805C888.324 459.535 881.182 464.547 872.325 469.513Z" fill="#59802D"/>
<path d="M699 605C703.455 608.111 703.455 608.111 708 611.286C707.505 612.841 707.01 614.397 706.5 616C703.594 614.92 703.594 614.92 700.5 612.857C699.375 608.732 699.375 608.732 699 605Z" fill="#3A5120"/>
<path d="M772.889 641C773.916 641.518 774.942 642.035 776 642.569C776 644.122 776 645.674 776 647.274C771.401 649.593 767.068 648.938 762 648.843C762.513 647.808 763.027 646.772 763.556 645.706C766.148 645.183 768.741 644.66 771.333 644.137C771.847 643.102 772.36 642.067 772.889 641Z" fill="#D0A3D3"/>
<path d="M523.111 260C526.704 260.99 530.298 261.98 534 263C529.333 266 529.333 266 524.667 266C524.153 266.99 523.64 267.98 523.111 269C522.084 268.505 521.058 268.01 520 267.5C521.027 265.025 522.053 262.55 523.111 260Z" fill="#F9E7DF"/>
<path d="M518.556 252C522.662 252.495 526.769 252.99 531 253.5C531 254.49 531 255.48 531 256.5C524.07 257.243 524.07 257.243 517 258C517.513 256.02 518.027 254.04 518.556 252Z" fill="#F1DCD3"/>
<path d="M624.35 179C624.862 179 625.373 179 625.9 179C626.124 180.904 626.348 182.808 626.578 184.769C627.12 189.1 627.766 193.262 629 197.462C627.466 198.223 627.466 198.223 625.9 199C622.943 194.116 622.551 191.145 623.381 185.538C623.553 184.309 623.725 183.079 623.902 181.813C624.05 180.884 624.198 179.956 624.35 179Z" fill="#D0A3D3"/>
<path d="M544.558 369C547.014 370.697 549.47 372.394 552 374.143C550.363 376.406 548.726 378.669 547.039 381C545.402 380.434 543.764 379.869 542.078 379.286C541.972 376.43 541.977 373.571 542.078 370.714C542.896 370.149 543.715 369.583 544.558 369Z" fill="#59802D"/>
<path d="M636.778 253C638.831 254.155 640.884 255.31 643 256.5C643 257.655 643 258.81 643 260C638.38 260 633.76 260 629 260C629.995 259.17 630.989 258.34 632.014 257.484C635.04 255.035 635.04 255.035 636.778 253Z" fill="#59802D"/>
<path d="M632.333 196C634.843 199.086 637.152 201.944 639 205.429C635.7 205.947 632.4 206.466 629 207C630.458 199.536 630.458 199.536 632.333 196Z" fill="#D0A3D3"/>
<path d="M674.784 384.621C668.51 416.979 644.98 476.356 634 502C643.935 488.253 667.899 446.286 681.843 387.793C687.299 364.907 699.255 312.29 709.294 286.276C714.784 270.943 731.412 232.821 754 203C705.373 258.517 701.781 281.517 690.471 319.586C682.43 346.649 678.454 365.698 674.784 384.621Z" fill="#133711"/>
<path d="M610.121 540.163C611.382 539.527 610.646 535.122 610.121 533L618 533.796L616.424 544.939L599.091 559.265L580.182 568.02L566 572C589.636 564.041 608.545 540.959 610.121 540.163Z" fill="#133711"/>
<path d="M455.484 678.633C461.058 691.167 472.258 697.433 477.161 699L488 684.9L479.484 680.2C468.955 674.56 467.871 659.05 468.645 652H450.065C449.445 665.787 453.42 675.5 455.484 678.633Z" fill="#35112C"/>
<path d="M567 704H623V698.75L567 698V704Z" fill="#35112C"/>
<path d="M739.166 213.453C760.627 186.817 805.687 162.587 837.835 184.551C845.915 190.905 851.325 197.409 853.478 207.573C857.154 247.003 841.901 280.914 817.229 311.015C798.881 332.725 778.045 350.072 753.537 364.423L749.241 366.971C742.393 370.868 736.308 373.938 728.527 375.387C720.446 376.992 713.753 378.486 707.966 384.684C702.233 396.336 699.25 409.135 696.304 421.778C695.834 423.793 695.362 425.815 694.884 427.817C692.048 439.437 688.057 450.331 683.449 461.379L681.276 466.603C674.871 481.549 667.255 495.657 658.933 509.609L657.352 512.773C684.278 499.708 697.931 478.171 709.553 451.501C711.734 444.376 711.846 438.155 710.041 430.938C709.79 429.128 709.666 428.239 709.84 427.412C710.007 426.613 710.452 425.872 711.326 424.415C712.683 423.601 713.419 423.16 714.216 422.958C715.161 422.719 716.192 422.817 718.444 423.031C720.814 423.779 721.689 424.056 722.409 424.555C722.83 424.847 723.199 425.215 723.782 425.799C723.846 428.434 723.85 431.071 723.782 433.705L720.718 434.496C718.971 435.517 717.991 436.089 717.402 436.934C716.65 438.012 716.534 439.533 716.269 442.995C715.908 447.313 715.874 451.496 715.874 455.844L719.111 452.898L723.387 449.024L727.612 445.189C734.566 439.089 736.423 437.461 738.526 437.026C739.292 436.868 740.091 436.868 741.181 436.868L740.884 430.839C740.665 426.398 740.624 424.865 743.571 421.431L745.926 419.473L747.544 422.185L749.682 425.699L751.795 429.202C752.719 430.775 753.18 431.56 753.833 432.123C754.483 432.684 755.323 433.027 756.998 433.707C757.986 437.756 757.986 437.758 758.579 441.611L755.842 441.056C745.97 439.957 739.965 442.592 732.283 448.629C717.549 460.667 707.138 474.722 696.893 490.634L726.945 485.89C718.271 485.773 710.165 485.676 701.639 487.471C710.002 478.372 716.328 474.577 728.724 474.029C741.052 474.312 753.088 477.631 762.279 486.161L764.905 489.052C750.353 498.892 738.528 505.128 720.619 503.284C716.503 502.222 712.505 500.942 708.466 499.621C703.27 498.088 699.096 497.818 693.73 498.54C690.265 500.509 687.399 502.485 684.24 504.865C673.1 512.57 662.396 518.228 649.443 522.261V525.423L652.296 526.549C681.035 537.913 709.549 549.769 738.016 561.794V564.957C722.002 572.178 702.433 575.327 685.222 570.149C676.635 566.726 668.633 562.21 660.614 557.643C657.056 555.671 653.49 553.719 649.907 551.793C647.706 550.605 645.521 549.388 643.353 548.14C640.499 546.487 639.098 545.677 637.594 545.352C636.146 545.039 634.602 545.174 631.571 545.44C628.055 548.215 624.68 551.066 621.369 554.085L617.539 557.557L614.647 560.213L618.947 560.627C630.186 561.892 640.577 563.76 651.322 567.329C679.157 576.433 713.316 580.033 740.748 567.773C756.529 559.396 763.401 544.76 769.65 528.586V525.423L767.451 529.642L764.51 535.208L761.618 540.711C758.821 545.559 756.02 549.754 752.252 553.888H749.089C748.191 536.352 749.299 524.671 760.457 510.895C766.387 504.463 773.247 499.852 780.722 495.378C783.5 498.156 783.189 503.709 782.932 508.305C782.857 509.642 782.786 510.898 782.798 511.982L782.936 516.17C783.06 529.028 779.3 539.385 771.331 549.538L769.112 552.43C765.789 556.276 762.206 559.816 758.579 563.375C773.637 556.392 781.049 552.954 787.132 547.912C793.028 543.024 797.674 536.629 806.825 524.033C808.122 518.489 807.803 515.033 806.028 509.609C803.777 506.21 801.345 503.04 798.806 499.85C793.434 493.001 792.623 486.455 792.739 477.952C793.909 469.289 797.199 461.175 800.472 453.106C800.743 452.437 801.013 451.768 801.283 451.1C811.221 455.511 817.846 464.723 822.327 474.455C825.831 485.694 824.055 495.642 818.824 505.898C816.042 511.889 814.484 518.278 812.925 524.677C812.736 525.452 812.547 526.229 812.355 527.004C830.9 506.337 841.008 487.659 839.643 459.31C838.797 451.978 835.524 445.984 831.335 440.03L833.121 444.416L835.389 450.111L837.668 455.782C839.243 460.588 839.244 460.588 837.662 463.751C827.04 455.502 821.336 447.99 817.1 435.286C816.992 432.29 816.966 429.291 817.001 426.293L817.045 421.53L817.1 417.892C824.626 417.892 826.204 419.323 831.42 424.056L831.632 424.248C842.367 435.976 845.446 447.174 846.46 462.663L846.861 468.674L847.151 473.238C852.31 457.542 856.682 442.045 859.805 425.799H864.55C863.867 444.125 859.38 460.678 853.478 477.982L855.579 476.296C863.672 469.997 872.159 464.844 881.096 459.822C883.177 458.693 884.204 458.135 885.111 457.426C885.992 456.737 886.76 455.905 888.273 454.265L869.295 465.332L867.714 460.588C873.466 450.058 881.399 442.566 892.822 438.943C899.2 437.187 905.428 436 912 435.286C911.026 445.026 908.407 453.764 900.786 460.23C892.891 465.614 885.439 469.378 876.017 471.262C857.198 475.93 846.394 491.694 836.871 507.436C835.541 509.735 834.218 512.038 832.917 514.354C841.258 510.482 848.364 506.234 855.592 500.548C862.427 495.334 871.311 496.027 879.712 496.682C880.999 496.782 882.275 496.882 883.53 496.959C893.563 499.118 899.865 505.597 905.377 513.958C910.815 528.839 905.248 543.16 899.347 557.05C896.097 562.74 892.412 567.791 888.275 572.863L886.014 575.897C871.401 594.592 847.233 604.557 824.452 608.592C788.146 612.634 752.857 603.981 720.619 587.096V585.514L723.687 584.693C728.3 583.457 732.911 582.212 737.522 580.968L742.351 579.677L747.031 578.41L751.323 577.256C753.371 576.683 754.407 576.393 755.415 576.026C756.446 575.651 757.448 575.195 759.474 574.273C763.546 572.783 765.753 572.656 769.996 573.253L773.734 573.776C778.756 574.653 783.721 575.712 788.692 576.835C816.893 583.152 844.75 583.761 870.877 569.7C883.192 561.238 891.62 550.805 896.183 536.492C897.17 529.998 897.675 523.945 896.183 517.517C894.783 515.547 894.105 514.593 893.281 513.787C892.508 513.031 891.606 512.405 889.857 511.191C884.799 511.418 884.795 511.418 880.367 512.773L881.948 506.447C877.016 503.576 873.304 502.816 867.614 502.79L863.506 502.71C859.139 503.388 857.784 504.644 855.06 508.028H866.132C862.766 511.729 859.622 513.89 855.06 515.935L860.2 517.714C866.595 520.495 869.489 523.735 872.458 530.167C872.062 536.295 872.063 536.295 870.877 541.236L866.132 539.655L864.847 534.417C862.531 527.228 860.025 525.734 853.478 522.261C845.629 519.645 839.498 519.332 831.829 522.353C822.764 526.997 815.787 532.374 808.864 539.81C805.045 543.861 800.882 547.251 796.539 550.725C798.846 550.236 801.152 549.74 803.458 549.242L807.35 548.408C810.82 547.683 810.82 547.683 813.936 545.981C826.032 544.322 834.048 546.471 844.304 552.93L847.151 555.469V560.213C835.735 565.105 826.95 567.054 815.024 562.782C811.019 561.174 808.107 559.489 804.447 557.05C792.033 557.25 781.731 561.525 770.424 566.217L769.65 566.538C749.018 575.06 729.376 582.61 706.686 582.506L700.739 582.49L694.62 582.45L688.371 582.429C683.304 582.41 678.236 582.384 673.169 582.352L676.008 584.523C682.651 589.639 689.103 594.783 695.213 600.537C704.872 609.352 715.449 617.187 726.945 623.467C730.88 623.181 730.881 623.18 734.853 621.885C738.015 621.348 741.178 620.819 744.344 620.304C743.319 626.011 743.053 627.493 742.262 628.6C741.984 628.988 741.643 629.33 741.181 629.792C740.561 632.182 740.01 634.591 739.5 637.007L738.653 640.966L738.016 644.023C732.87 639.542 730.866 636.614 730.108 629.792L725.907 628.538C713.871 624.194 703.228 616.123 693.73 607.653C694.71 611.477 695.7 615.298 696.696 619.117L697.53 622.386C698.952 627.809 700.427 632.817 703.221 637.698L701.54 632.56C700.141 626.966 700.011 625.446 701.639 620.304C713.85 632.241 715.868 646.501 717.455 663C704.636 658.13 696.568 651.724 690.567 639.28C688.976 633.053 688.738 627.008 688.491 620.601C687.575 608.384 686.277 601.224 676.993 592.94C667.386 585.418 657.441 579.357 646.28 574.444L649.641 577.509C663.279 591.299 668.816 606.013 668.721 625.245C668.645 628.87 668.554 632.494 668.424 636.117C657.709 632.943 650.154 627.954 644.068 618.42C638.872 607.238 639.326 596.043 639.954 583.933C645.166 588.609 647.88 592.935 650.63 599.351L652.682 604.07L654.188 607.653C651.131 593.708 645.24 581.978 633.231 573.654C622.931 568.037 611.807 568.685 600.412 569.7C595.851 571.195 591.897 573.116 587.641 575.322C568.496 584.778 548.129 588.824 526.964 584.328C515.545 580.322 507.778 576.639 500.767 566.538C496.821 558.117 496.379 550.399 497.603 541.236C501.957 529.596 511.953 520.752 522.756 515.126C552.099 502.214 591.168 505.358 620.974 515.935C620.674 496.043 620.674 496.043 613.065 477.982L611.483 473.238C607.165 471.612 602.991 471.45 598.41 471.379L594.536 471.265C591.888 471.197 589.239 471.148 586.591 471.117C575.26 470.731 567.038 467.871 558.548 460.242L555.335 456.635C546.698 447.584 537.97 443.598 526.074 440.03C532.411 432.318 541.168 429.061 550.491 426.193C565.532 424.726 578.635 425.814 591.447 434.675C597.742 439.941 602.928 445.392 606.739 452.682L605.157 457.425L602.599 455.572C592.293 448.37 581.646 441.612 568.779 441.611L571.973 442.662C593.318 450.005 608.954 458.656 620.974 477.982C622.839 459.621 615.763 443.79 604.854 429.295C592.37 414.036 577.873 403.524 557.763 401.424L551.479 401.09L548.202 400.904C545.572 400.757 542.94 400.626 540.308 400.497L538.727 395.753L559.289 394.172L553.951 388.934C545.144 380.292 545.144 380.291 544.856 374.108L545.054 370.451H549.799L552.072 376.085C557.663 387.304 568.625 394.023 579.85 398.915L577.886 396.717L575.304 393.776L572.745 390.885C568.011 384.852 566.734 380.411 566.703 372.725L566.623 368.172C567.278 363.56 568.339 362.205 571.942 359.382C575.174 366.329 577.484 373.148 579.554 380.532C584.815 397.791 595.783 409.384 607.939 422.233L608.32 422.636L609.902 411.566C613.126 417.433 615.113 423.717 617.118 430.054C617.377 430.872 617.638 431.696 617.9 432.516C620.149 439.427 622.77 446.037 625.719 452.682C629.616 446.837 631.844 440.583 634.166 434.067C634.477 433.194 634.791 432.314 635.11 431.432L636.831 426.693C640.667 415.97 644.016 405.348 646.28 394.172H654.188C650.886 409.139 646.618 423.435 641.436 437.857C636.669 451.159 632.869 464.034 630.464 477.982L629.568 481.528C628.612 487.612 628.728 493.687 628.847 499.819C628.857 500.354 628.867 500.889 628.877 501.424L628.882 501.703C642.176 472.935 652.965 444.956 660.969 414.274C662.807 407.286 664.72 400.317 666.634 393.349L666.842 392.59L662.486 392.467C632.708 391.123 605.454 383.279 584.596 360.963C569.836 343.611 567.328 321.037 568.779 299.291C569.159 295.012 569.576 290.765 570.169 286.511C570.34 285.08 570.439 284.254 570.36 283.445C570.253 282.341 569.815 281.269 568.779 278.733C559.529 272.549 549.571 269.588 538.727 267.664V262.92C548.48 262.284 556.406 264.552 565.615 267.664L562.959 264.828L559.486 261.042L556.039 257.317C549.866 249.522 549.396 243.201 549.502 233.368L549.506 230.129C549.552 224.975 549.567 223.192 550.078 221.565C550.348 220.706 550.757 219.89 551.381 218.643C560.234 220.726 564.17 227.05 568.729 234.377L568.779 234.456C572.248 242.023 572.352 248.411 571.942 256.595L570.36 259.757H567.197L560.87 243.943C563.972 254.968 563.972 254.968 568.185 265.588C570.47 271.09 571.34 275.991 571.942 281.896H575.105L575.445 277.931C577.099 270.577 580.807 264.78 584.78 258.566C585.164 257.966 585.552 257.359 585.939 256.749C590.688 248.839 591.84 243.687 590.922 234.456C590.405 232.469 590.16 231.523 589.829 230.608C589.529 229.778 589.158 228.974 588.451 227.439C584.044 215.285 587.696 204.836 592.504 193.341C599.149 199.068 602.738 205.406 604.088 214.003C604.622 224.305 601.181 232.973 597.249 242.362L599.849 238.872C603.747 234.251 607.824 230.775 612.571 227.043C618.427 222.767 618.427 222.767 622.556 217.061L620.974 212.316C620.864 208.793 620.84 205.266 620.875 201.741L620.918 196.09L620.974 191.76C625.456 197.093 628.08 200.558 628.882 207.573L636.79 205.991L636.988 211.131C637.396 214.3 637.596 215.86 638.366 217.053C639.113 218.209 640.394 219.021 642.919 220.619L647.864 223.388C649.589 224.882 650.311 225.507 650.963 226.197C651.431 226.693 651.864 227.222 652.607 228.13V231.293C645.829 231.846 641.42 231.632 635.703 228.031C631.032 224.616 631.031 224.617 627.424 225.252C615.482 229.965 606.711 240.549 598.93 250.368L596.724 253.134C592.035 259.255 588.954 265.216 586.177 272.408L588.847 269.863C600.304 259.26 611.101 251.694 627.201 251.455L632.187 251.332C637.322 251.911 639.479 252.984 643.117 256.595V259.757L638.94 259.77C621.937 260.322 607.796 264.145 595.667 276.658C584.561 291.047 582.819 306.867 584.596 324.593C587.945 342.504 595.984 356.261 611.015 366.745C630.284 378.016 648.054 380.501 670.006 379.94L670.676 377.398C701.392 261.544 701.392 261.543 736.435 217.061L739.166 213.453ZM570.5 522C536.5 519.2 521.333 527.833 518 532.5C500.4 547.7 510.667 563.167 518 569C535.2 578.6 558.5 572.333 568 568C584 561.2 598.666 547.833 604 542C607.6 538 607.5 533.333 607 531.5C593 525.9 576.833 522.833 570.5 522ZM828.172 191.678C817.701 188.191 804.341 187.654 794.326 192.823C753.317 217.342 753.317 217.342 725.919 315.601C724.436 320.952 722.963 326.302 721.368 331.621C717.564 344.032 713.713 355.943 713 369C718.544 367.916 722.946 366.484 727.88 363.703C747.804 350.483 758.731 334.907 764.559 312.107C764.838 310.961 765.108 309.848 765.378 308.736C765.269 314.508 765.128 319.087 766.966 324.595C777.182 307.699 785.26 291.097 790.277 271.864C791.188 267.72 791.188 267.72 792.36 264.331C793.963 263.53 793.964 263.53 795.535 262.745C790.616 295.23 775.891 325.582 751.67 348.086C750.577 349.037 750.577 349.038 749.506 349.97C750.585 350.509 751.633 351.031 752.681 351.555C773.257 337.924 790.435 322.833 805.999 303.621C825.774 278.716 845.171 246.673 841.564 213.582C839.646 203.678 836.294 197.712 828.172 191.678Z" fill="#3A5120"/>
</svg>
